<?xml version="1.0" standalone="no"?>
<!DOCTYPE svg PUBLIC "-//W3C//DTD SVG 1.1//EN" "http://www.w3.org/Graphics/SVG/1.1/DTD/svg11.dtd" >
<svg xmlns="http://www.w3.org/2000/svg">
<metadata></metadata>
<defs>
<font id="changeling_neoregular" horiz-adv-x="1720" >
<font-face units-per-em="2048" ascent="1589" descent="-459" />
<missing-glyph horiz-adv-x="573" />
<glyph unicode="&#xfb01;" horiz-adv-x="2088" d="M115 -418v1241q0 127 89.5 217t217.5 90h1184v-196h-1295v-393h1295v-197h-1295v-762h-196zM1778 0v1130h196v-1130h-196zM1778 1303v245h196v-245h-196z" />
<glyph unicode="&#xfb02;" horiz-adv-x="2088" d="M115 -418v1241q0 127 89.5 217t217.5 90h1184v-196h-1295v-393h1295v-197h-1295v-762h-196zM1778 0v1548h196v-1548h-196z" />
<glyph horiz-adv-x="0" />
<glyph horiz-adv-x="0" />
<glyph horiz-adv-x="682" />
<glyph unicode="&#xd;" horiz-adv-x="573" />
<glyph unicode=" "  horiz-adv-x="573" />
<glyph unicode="&#x09;" horiz-adv-x="573" />
<glyph unicode="&#xa0;" horiz-adv-x="573" />
<glyph unicode="!" horiz-adv-x="425" d="M115 0v246h196v-246h-196zM115 418v712h196v-712h-196z" />
<glyph unicode="&#x22;" horiz-adv-x="819" d="M35 498v204h129v183h-49v245h196v-323q0 -121 -78.5 -210t-197.5 -99zM428 498v204h129v183h-49v245h197v-323q0 -121 -79 -210t-198 -99z" />
<glyph unicode="#" horiz-adv-x="1212" d="M90 319v148h197v197h-197v147h197v221h147v-221h344v221h148v-221h196v-147h-196v-197h196v-148h-196v-221h-148v221h-344v-221h-147v221h-197zM434 467h344v197h-344v-197z" />
<glyph unicode="$" horiz-adv-x="1658" d="M57 774v49q0 127 90 217t218 90h366v148h197v-148h620v-196h-1294v-270h1040q128 0 218 -90t90 -218v-49q0 -127 -90 -217t-218 -90h-366v-147h-197v147h-620v197h1294v270h-1040q-128 0 -218 90t-90 217z" />
<glyph unicode="%" horiz-adv-x="1736" d="M57 860q0 126 89.5 215.5t215.5 89.5q127 0 217.5 -89.5t90.5 -215.5q0 -127 -90 -217t-218 -90q-126 0 -215.5 90t-89.5 217zM215 0l1131 1130h174l-1131 -1130h-174zM254 752h219v217h-219v-217zM1067 281q0 127 89.5 217t215.5 90q128 0 217.5 -90t89.5 -217 q0 -126 -90 -216t-217 -90q-126 0 -215.5 90t-89.5 216zM1264 172h219v219h-219v-219z" />
<glyph unicode="&#x26;" horiz-adv-x="1779" d="M119 307v156q0 116 80 196q-78 85 -78 193q0 116 81.5 197t196.5 81h1215v-196h-1311v-143l1114 -244v166h197v-209l108 -25v-198l-116 26v-53q-17 -108 -101.5 -181t-197.5 -73h-881q-128 0 -217.5 90t-89.5 217zM319 197h1098v151l-1022 221q-49 10 -76 29v-401z" />
<glyph unicode="'" horiz-adv-x="425" d="M35 498v204h129v183h-49v245h196v-323q0 -121 -78.5 -210t-197.5 -99z" />
<glyph unicode="(" horiz-adv-x="516" d="M115 -111v1352q0 127 89.5 217t217.5 90h37v-196h-148v-1573h148v-197h-37q-128 0 -217.5 90t-89.5 217z" />
<glyph unicode=")" horiz-adv-x="516" d="M57 -221h148v1573h-148v196h37q128 0 217.5 -90t89.5 -217v-1352q0 -127 -89.5 -217t-217.5 -90h-37v197z" />
<glyph unicode="*" horiz-adv-x="1085" d="M57 467v197l355 -23l-197 295l170 98l158 -317l157 317l170 -98l-196 -295l354 23v-197l-354 22l196 -296l-170 -99l-157 320l-158 -320l-170 99l197 296z" />
<glyph unicode="+" horiz-adv-x="1146" d="M57 467v197h422v417h197v-417h414v-197h-414v-418h-197v418h-422z" />
<glyph unicode="," horiz-adv-x="425" d="M35 -182h129v182h-49v246h196v-246v-78q0 -122 -79 -210.5t-197 -98.5v205z" />
<glyph unicode="-" horiz-adv-x="983" d="M57 467v197h869v-197h-869z" />
<glyph unicode="." horiz-adv-x="425" d="M115 0v246h196v-246h-196z" />
<glyph unicode="/" horiz-adv-x="1210" d="M-47 0l1130 1130h174l-1130 -1130h-174z" />
<glyph unicode="0" d="M115 307v516q0 127 89.5 217t217.5 90h876q128 0 218 -90t90 -217v-516q0 -127 -90 -217t-218 -90h-876q-128 0 -217.5 90t-89.5 217zM311 197h1098v737h-1098v-737z" />
<glyph unicode="1" horiz-adv-x="790" d="M35 864l221 219q72 72 174 72q101 0 173.5 -72.5t72.5 -173.5v-909h-197v1028l-305 -303z" />
<glyph unicode="2" horiz-adv-x="1691" d="M115 0v356q0 128 90 218t217 90h987v270h-1294v196h1183q128 0 218 -90t90 -217v-49q0 -127 -90 -217t-218 -90h-987v-270h1268v-197h-1464z" />
<glyph unicode="3" horiz-adv-x="1691" d="M115 0v197h1294v270h-1294v197h1294v270h-1294v196h1183q127 0 214 -84t87 -204v-49q0 -69 -29.5 -128.5t-82.5 -99.5q55 -39 87 -99t32 -128v-49q0 -120 -90 -204.5t-218 -84.5h-1183z" />
<glyph unicode="4" horiz-adv-x="1687" d="M57 569q0 112 97 185l505 376h338l-802 -589h1042v589h197v-589h196v-197h-196v-344h-197v344h-954q-94 0 -160 65.5t-66 159.5z" />
<glyph unicode="5" horiz-adv-x="1691" d="M115 0v197h1294v270h-1294v663h1437v-196h-1241v-270h987q128 0 218 -90t90 -218v-49q0 -127 -90 -217t-218 -90h-1183z" />
<glyph unicode="6" horiz-adv-x="1691" d="M115 307v516q0 127 89.5 217t217.5 90h1130v-196h-1241v-270h987q128 0 218 -90t90 -218v-49q0 -127 -90 -217t-218 -90h-876q-128 0 -217.5 90t-89.5 217zM311 197h1098v270h-1098v-270z" />
<glyph unicode="7" horiz-adv-x="1642" d="M57 934v196h1303q94 0 159.5 -65.5t65.5 -159.5q0 -112 -96 -184l-975 -721h-340l1274 934h-1391z" />
<glyph unicode="8" horiz-adv-x="1662" d="M86 289v49q0 68 32 128t87 99q-53 40 -84 100t-31 128v49q0 120 88 204t215 84h877q127 0 214 -84t87 -204v-49q0 -69 -30.5 -128.5t-84.5 -99.5q56 -39 88.5 -99t32.5 -128v-49q0 -120 -90 -204.5t-217 -84.5h-877q-127 0 -217 84.5t-90 204.5zM283 197h1097v270h-1097 v-270zM283 664h1097v270h-1097v-270z" />
<glyph unicode="9" horiz-adv-x="1662" d="M57 774v49q0 127 90 217t218 90h876q126 0 216.5 -90t90.5 -217v-516q0 -127 -90.5 -217t-216.5 -90h-1130v197h1241v270h-987q-128 0 -218 90t-90 217zM254 664h1098v270h-1098v-270z" />
<glyph unicode=":" horiz-adv-x="425" d="M115 0v246h196v-246h-196zM115 465v246h196v-246h-196z" />
<glyph unicode=";" horiz-adv-x="425" d="M35 -182h129v182h-49v246h196v-246v-78q0 -122 -79 -210.5t-197 -98.5v205zM115 465v246h196v-246h-196z" />
<glyph unicode="&#x3c;" horiz-adv-x="1132" d="M57 569q0 71 37.5 131t98.5 91l466 241h428l-905 -463l922 -471h-428l-483 250q-61 31 -98.5 90.5t-37.5 130.5z" />
<glyph unicode="=" horiz-adv-x="1196" d="M82 270v197h1032v-197h-1032zM82 664v196h1032v-196h-1032z" />
<glyph unicode="&#x3e;" horiz-adv-x="1132" d="M29 98l919 471l-905 463h428l469 -241q61 -31 98 -91t37 -131t-37 -130.5t-98 -90.5l-483 -250h-428z" />
<glyph unicode="?" horiz-adv-x="1634" d="M57 934v196h1184q127 0 217 -90t90 -217v-49q0 -128 -90 -217.5t-217 -89.5h-889v197h1000v270h-1295zM352 0v246h197v-246h-197z" />
<glyph unicode="@" horiz-adv-x="1722" d="M115 258v614q0 107 76 182.5t182 75.5h977q106 0 182 -75.5t76 -182.5v-675h-965q-127 0 -217 89.5t-90 217.5v123q0 127 90 217t217 90h719v-541h147v639h-1296v-934h1395v-98h-1235q-106 0 -182 75.5t-76 182.5zM532 393h633v344h-633v-344z" />
<glyph unicode="A" horiz-adv-x="1898" d="M0 0l739 1034q37 52 92 83.5t117 31.5q63 0 117.5 -31.5t91.5 -83.5l741 -1034h-247l-189 266h-1028l-186 -266h-248zM575 463h746l-373 534z" />
<glyph unicode="B" horiz-adv-x="1691" d="M115 0v1130h1183q127 0 214 -84t87 -204v-49q0 -69 -29.5 -128.5t-82.5 -99.5q55 -39 87 -99t32 -128v-49q0 -120 -90 -204.5t-218 -84.5h-1183zM311 197h1098v270h-1098v-270zM311 664h1098v270h-1098v-270z" />
<glyph unicode="C" horiz-adv-x="1662" d="M115 307v516q0 127 89.5 217t217.5 90h1184v-196h-1295v-737h1295v-197h-1184q-128 0 -217.5 90t-89.5 217z" />
<glyph unicode="D" d="M115 0v1130h1183q128 0 218 -90t90 -217v-516q0 -127 -90 -217t-218 -90h-1183zM311 197h1098v737h-1098v-737z" />
<glyph unicode="E" d="M115 307v516q0 127 89.5 217t217.5 90h1184v-196h-1295v-270h1295v-197h-1295v-270h1295v-197h-1184q-128 0 -217.5 90t-89.5 217z" />
<glyph unicode="F" d="M115 0v823q0 127 89.5 217t217.5 90h1184v-196h-1295v-270h1295v-197h-1295v-467h-196z" />
<glyph unicode="G" d="M115 307v516q0 127 89.5 217t217.5 90h1184v-196h-1295v-737h1098v270h-575v197h772v-357q0 -127 -90 -217t-218 -90h-876q-128 0 -217.5 90t-89.5 217z" />
<glyph unicode="H" d="M115 0v1130h196v-466h1098v466h197v-1130h-197v467h-1098v-467h-196z" />
<glyph unicode="I" horiz-adv-x="425" d="M115 0v1130h196v-1130h-196z" />
<glyph unicode="J" horiz-adv-x="1368" d="M57 0v197h1000v933h196v-823q0 -127 -89.5 -217t-217.5 -90h-889z" />
<glyph unicode="K" horiz-adv-x="1638" d="M115 0v1130h196v-1130h-196zM358 569q0 63 33 116t88 81l715 364h430l-1106 -561l1120 -569h-428l-731 373q-55 28 -88 80.5t-33 115.5z" />
<glyph unicode="L" horiz-adv-x="1368" d="M115 307v823h196v-933h1000v-197h-889q-128 0 -217.5 90t-89.5 217z" />
<glyph unicode="M" horiz-adv-x="2099" d="M115 0v928q0 92 64.5 156.5t156.5 64.5q61 0 111.5 -31t82.5 -84l519 -878l520 878q30 52 81 83.5t111 31.5q92 0 156.5 -64.5t64.5 -156.5l3 -928h-197v1018l-549 -926q-30 -51 -80 -80.5t-110 -29.5q-59 0 -110 30t-81 80l-547 926v-1018h-196z" />
<glyph unicode="N" horiz-adv-x="1732" d="M115 0v928q0 92 64.5 156.5t156.5 64.5t158 -66l927 -942v989h197v-927q0 -92 -64.5 -156.5t-156.5 -64.5q-93 0 -158 65l-928 942v-989h-196z" />
<glyph unicode="O" d="M115 307v516q0 127 89.5 217t217.5 90h876q128 0 218 -90t90 -217v-516q0 -127 -90 -217t-218 -90h-876q-128 0 -217.5 90t-89.5 217zM311 197h1098v737h-1098v-737z" />
<glyph unicode="P" horiz-adv-x="1691" d="M115 0v1130h1183q128 0 218 -90t90 -217v-172q0 -127 -90 -217t-218 -90h-987v-344h-196zM311 541h1098v393h-1098v-393z" />
<glyph unicode="Q" horiz-adv-x="1781" d="M115 307v516q0 127 89.5 217t217.5 90h876q128 0 218 -90t90 -217v-516q0 -53 -31 -110h178v-197h-1331q-128 0 -217.5 90t-89.5 217zM311 197h1098v737h-1098v-737z" />
<glyph unicode="R" d="M115 0v1130h1183q128 0 218 -90t90 -217v-172q0 -69 -33.5 -123.5t-91.5 -85.5q58 -31 91.5 -85.5t33.5 -123.5v-233h-197v344h-1098v-344h-196zM311 541h1098v393h-1098v-393z" />
<glyph unicode="S" horiz-adv-x="1658" d="M57 774v49q0 127 90 217t218 90h1183v-196h-1294v-270h1040q128 0 218 -90t90 -218v-49q0 -127 -90 -217t-218 -90h-1183v197h1294v270h-1040q-128 0 -218 90t-90 217z" />
<glyph unicode="T" horiz-adv-x="1589" d="M57 934v196h1475v-196h-639v-934h-197v934h-639z" />
<glyph unicode="U" d="M115 307v823h196v-933h1098v933h197v-823q0 -127 -90 -217t-218 -90h-876q-128 0 -217.5 90t-89.5 217z" />
<glyph unicode="V" horiz-adv-x="1898" d="M0 1130h248l702 -997l701 997h247l-741 -1034q-37 -52 -91 -83t-118 -31q-62 0 -117 31t-92 83z" />
<glyph unicode="W" horiz-adv-x="2209" d="M29 1130h209l352 -1011l307 885q22 65 79.5 105t129.5 40q70 0 128 -40t81 -105l307 -885l350 1011h209l-352 -1003q-23 -65 -80 -105t-127 -40q-72 0 -129.5 40t-79.5 105l-307 885l-307 -885q-23 -65 -81 -105t-128 -40q-71 0 -128.5 40t-80.5 105z" />
<glyph unicode="X" horiz-adv-x="1908" d="M29 0l729 569l-719 561h323l494 -387q88 -71 88 -174t-88 -174l-506 -395h-321zM965 569q0 103 88 174l493 387h322l-719 -561l731 -569h-324l-503 395q-88 71 -88 174z" />
<glyph unicode="Y" horiz-adv-x="1769" d="M0 1130h289l596 -583l596 583h288l-708 -681q-38 -38 -78 -52v-397h-197v397q-38 13 -77 52z" />
<glyph unicode="Z" horiz-adv-x="1728" d="M57 225q0 74 46 130.5t118 82.5l1362 496h-1464v196h1327q94 0 159.5 -65.5t65.5 -159.5q0 -74 -46 -130.5t-118 -82.5l-1360 -495h1512v-197h-1376q-94 0 -160 65.5t-66 159.5z" />
<glyph unicode="[" horiz-adv-x="516" d="M115 -418v1966h344v-196h-148v-1573h148v-197h-344z" />
<glyph unicode="\" horiz-adv-x="1210" d="M-47 1130h174l1130 -1130h-174z" />
<glyph unicode="]" horiz-adv-x="516" d="M57 -221h148v1573h-148v196h344v-1966h-344v197z" />
<glyph unicode="^" horiz-adv-x="1202" d="M-6 238l399 550q37 52 91.5 83.5t117.5 31.5q62 0 117 -31.5t92 -83.5l397 -550h-247l-361 514l-358 -514h-248z" />
<glyph unicode="_" horiz-adv-x="1538" d="M82 -147h1374v-197h-1374v197z" />
<glyph unicode="`" horiz-adv-x="425" d="M-84 1548h234l360 -295h-234z" />
<glyph unicode="a" horiz-adv-x="1699" d="M41 307v49q0 128 90 218t217 90h1041v270h-1295v196h1184q128 0 217.5 -90t89.5 -217v-823h-1237q-128 0 -217.5 90t-89.5 217zM238 197h1151v270h-1151v-270z" />
<glyph unicode="b" d="M115 0v1548h196v-418h987q128 0 218 -90t90 -217v-516q0 -127 -90 -217t-218 -90h-1183zM311 197h1098v737h-1098v-737z" />
<glyph unicode="c" horiz-adv-x="1662" d="M115 307v516q0 127 89.5 217t217.5 90h1184v-196h-1295v-737h1295v-197h-1184q-128 0 -217.5 90t-89.5 217z" />
<glyph unicode="d" d="M115 307v516q0 127 89.5 217t217.5 90h987v418h197v-1548h-1184q-128 0 -217.5 90t-89.5 217zM311 197h1098v737h-1098v-737z" />
<glyph unicode="e" d="M115 307v516q0 127 89.5 217t217.5 90h876q128 0 218 -90t90 -217v-356h-1295v-270h1295v-197h-1184q-128 0 -217.5 90t-89.5 217zM311 664h1098v270h-1098v-270z" />
<glyph unicode="f" horiz-adv-x="1662" d="M115 -418v1241q0 127 89.5 217t217.5 90h1184v-196h-1295v-393h1295v-197h-1295v-762h-196z" />
<glyph unicode="g" d="M115 -221h1294v221h-987q-128 0 -217.5 90t-89.5 217v516q0 127 89.5 217t217.5 90h1184v-1241q0 -127 -90 -217t-218 -90h-1183v197zM311 197h1098v737h-1098v-737z" />
<glyph unicode="h" d="M115 0v1548h196v-418h987q128 0 218 -90t90 -217v-823h-197v934h-1098v-934h-196z" />
<glyph unicode="i" horiz-adv-x="425" d="M115 0v1130h196v-1130h-196zM115 1303v245h196v-245h-196z" />
<glyph unicode="j" horiz-adv-x="425" d="M-301 -221h416v1351h196v-1241q0 -127 -89.5 -217t-217.5 -90h-305v197zM115 1303v245h196v-245h-196z" />
<glyph unicode="k" horiz-adv-x="1638" d="M115 0v1548h196v-1548h-196zM358 569q0 63 33 116t88 81l715 364h430l-1106 -561l1120 -569h-428l-731 373q-55 28 -88 80.5t-33 115.5z" />
<glyph unicode="l" horiz-adv-x="425" d="M115 0v1548h196v-1548h-196z" />
<glyph unicode="m" horiz-adv-x="2424" d="M115 0v1130h1888q127 0 217 -90t90 -217v-823h-196v934h-803v-934h-197v934h-803v-934h-196z" />
<glyph unicode="n" d="M115 0v1130h1183q128 0 218 -90t90 -217v-823h-197v934h-1098v-934h-196z" />
<glyph unicode="o" d="M115 307v516q0 127 89.5 217t217.5 90h876q128 0 218 -90t90 -217v-516q0 -127 -90 -217t-218 -90h-876q-128 0 -217.5 90t-89.5 217zM311 197h1098v737h-1098v-737z" />
<glyph unicode="p" d="M115 -418v1548h1183q128 0 218 -90t90 -217v-516q0 -127 -90 -217t-218 -90h-987v-418h-196zM311 197h1098v737h-1098v-737z" />
<glyph unicode="q" d="M115 307v516q0 127 89.5 217t217.5 90h1184v-1548h-197v418h-987q-128 0 -217.5 90t-89.5 217zM311 197h1098v737h-1098v-737z" />
<glyph unicode="r" horiz-adv-x="1662" d="M115 0v1130h1183q128 0 218 -90t90 -217v-258h-197v369h-1098v-934h-196z" />
<glyph unicode="s" horiz-adv-x="1658" d="M57 774v49q0 127 90 217t218 90h1183v-196h-1294v-270h1040q128 0 218 -90t90 -218v-49q0 -127 -90 -217t-218 -90h-1183v197h1294v270h-1040q-128 0 -218 90t-90 217z" />
<glyph unicode="t" horiz-adv-x="1662" d="M115 307v1241h196v-418h1295v-196h-1295v-737h1295v-197h-1184q-128 0 -217.5 90t-89.5 217z" />
<glyph unicode="u" d="M115 307v823h196v-933h1098v933h197v-1130h-1184q-128 0 -217.5 90t-89.5 217z" />
<glyph unicode="v" horiz-adv-x="1898" d="M0 1130h248l702 -997l701 997h247l-741 -1034q-37 -52 -91 -83t-118 -31q-62 0 -117 31t-92 83z" />
<glyph unicode="w" horiz-adv-x="2209" d="M29 1130h209l352 -1011l307 885q22 65 79.5 105t129.5 40q70 0 128 -40t81 -105l307 -885l350 1011h209l-352 -1003q-23 -65 -80 -105t-127 -40q-72 0 -129.5 40t-79.5 105l-307 885l-307 -885q-23 -65 -81 -105t-128 -40q-71 0 -128.5 40t-80.5 105z" />
<glyph unicode="x" horiz-adv-x="1908" d="M29 0l729 569l-719 561h323l494 -387q88 -71 88 -174t-88 -174l-506 -395h-321zM965 569q0 103 88 174l493 387h322l-719 -561l731 -569h-324l-503 395q-88 71 -88 174z" />
<glyph unicode="y" d="M115 -221h1294v221h-987q-128 0 -217.5 90t-89.5 217v823h196v-933h1098v933h197v-1241q0 -127 -90 -217t-218 -90h-1183v197z" />
<glyph unicode="z" horiz-adv-x="1728" d="M57 225q0 74 46 130.5t118 82.5l1362 496h-1464v196h1327q94 0 159.5 -65.5t65.5 -159.5q0 -74 -46 -130.5t-118 -82.5l-1360 -495h1512v-197h-1376q-94 0 -160 65.5t-66 159.5z" />
<glyph unicode="{" horiz-adv-x="577" d="M29 467v197h147v577q0 127 90 217t217 90h37v-196h-147v-529q0 -84 -43 -152t-115 -106q70 -36 114 -98.5t44 -138.5v-549h147v-197h-37q-127 0 -217 90t-90 217v578h-147z" />
<glyph unicode="|" horiz-adv-x="278" d="M78 -418v1966h123v-1966h-123z" />
<glyph unicode="}" horiz-adv-x="577" d="M57 -221h148v549q0 76 44 138.5t113 98.5q-72 38 -114.5 105.5t-42.5 152.5v529h-148v196h37q128 0 217.5 -90t89.5 -217v-577h148v-197h-148v-578q0 -127 -89.5 -217t-217.5 -90h-37v197z" />
<glyph unicode="~" horiz-adv-x="1202" d="M-6 360l225 314q37 52 91 83t118 31t118 -31t91 -83l133 -185l186 277h248l-225 -313q-37 -52 -91.5 -83.5t-117.5 -31.5t-117.5 31.5t-91.5 83.5l-133 184l-186 -277h-248z" />
<glyph unicode="&#xa1;" horiz-adv-x="425" d="M115 0v713h196v-713h-196zM115 885v245h196v-245h-196z" />
<glyph unicode="&#xa2;" horiz-adv-x="1662" d="M115 307v516q0 127 89.5 217t217.5 90h340v148h196v-148h648v-196h-1295v-737h1295v-197h-648v-147h-196v147h-340q-128 0 -217.5 90t-89.5 217z" />
<glyph unicode="&#xa3;" horiz-adv-x="1662" d="M57 0v197h312v270h-312v197h312v159q0 127 89.5 217t217.5 90h872v-196h-983v-270h983v-197h-983v-270h983v-197h-1491z" />
<glyph unicode="&#xa4;" horiz-adv-x="1423" d="M41 0l235 236q-92 89 -92 221v221q0 127 90 217l-233 235h174l166 -165q58 20 111 20h438q54 0 112 -20l166 165h174l-235 -235q90 -90 90 -217v-221q0 -127 -92 -219l237 -238h-174l-170 168q-50 -18 -108 -18h-438q-56 0 -109 18l-168 -168h-174zM381 346h659v442h-659 v-442z" />
<glyph unicode="&#xa5;" horiz-adv-x="1767" d="M0 1130h287l596 -583l596 583h288l-712 -688h604v-98h-678v-98h678v-99h-678v-147h-197v147h-675v99h675v98h-675v98h604z" />
<glyph unicode="&#xa6;" horiz-adv-x="278" d="M78 416h123v-834h-123v834zM78 713v835h123v-835h-123z" />
<glyph unicode="&#xa7;" horiz-adv-x="1703" d="M86 522v49q0 68 32 128.5t87 99.5q-53 40 -83 99.5t-30 127.5v49q0 121 87 205t214 84h1204v-197h-1314v-270h1028q127 0 214 -84t87 -205v-49q0 -68 -30 -127.5t-83 -99.5q55 -39 87 -99.5t32 -128.5v-49q0 -120 -89.5 -204t-217.5 -84h-1205v196h1315v270h-1028 q-127 0 -217 84.5t-90 204.5zM283 430h1138v270h-1138v-270z" />
<glyph unicode="&#xa8;" horiz-adv-x="425" d="M-98 1253v246h196v-246h-196zM328 1253v246h196v-246h-196z" />
<glyph unicode="&#xa9;" horiz-adv-x="1722" d="M115 258v614q0 107 76 182.5t182 75.5h977q106 0 182 -75.5t76 -182.5v-614q0 -107 -76 -182.5t-182 -75.5h-977q-106 0 -182 75.5t-76 182.5zM213 98h1296v934h-1296v-934zM336 504v123q0 127 90 217t217 90h719v-197h-830v-344h830v-196h-719q-127 0 -217 89.5 t-90 217.5z" />
<glyph unicode="&#xaa;" horiz-adv-x="1396" d="M86 602v221q0 127 90 217t217 90h889v-835h-889q-127 0 -217 89.5t-90 217.5zM283 492h802v442h-802v-442z" />
<glyph unicode="&#xab;" horiz-adv-x="1157" d="M59 565q0 126 91 217l151 152h279l-369 -369l369 -368h-279l-151 151q-91 88 -91 217zM608 565q0 127 90 217l152 152h278l-368 -369l368 -368h-278l-152 151q-90 87 -90 217z" />
<glyph unicode="&#xac;" horiz-adv-x="1196" d="M82 664v196h999v-590h-196v394h-803z" />
<glyph unicode="&#xad;" horiz-adv-x="1146" d="M57 467v197h1033v-197h-1033z" />
<glyph unicode="&#xae;" horiz-adv-x="1280" d="M115 578v294q0 107 76 182.5t182 75.5h534q106 0 182 -75.5t76 -182.5v-294q0 -107 -76 -183t-182 -76h-534q-106 0 -182 76t-76 183zM213 418h854v614h-854v-614zM311 516v418h527q65 0 109 -38t44 -93q0 -107 -82 -137q38 -14 60 -42t22 -67v-41h-98v98h-483v-98h-99z M410 713h483v123h-483v-123z" />
<glyph unicode="&#xaf;" horiz-adv-x="425" d="M-147 1253v148h720v-148h-720z" />
<glyph unicode="&#xb0;" horiz-adv-x="727" d="M57 860q0 126 90.5 215.5t217.5 89.5q126 0 215.5 -89.5t89.5 -215.5q0 -127 -89.5 -217t-215.5 -90q-128 0 -218 90t-90 217zM254 752h219v217h-219v-217z" />
<glyph unicode="&#xb1;" horiz-adv-x="1146" d="M57 0h1033v-197h-1033v197zM57 467v197h418v417h197v-417h418v-197h-418v-418h-197v418h-418z" />
<glyph unicode="&#xb2;" horiz-adv-x="1103" d="M115 418v231q0 85 59.5 144t142.5 59h572v123h-774v155h727q83 0 141.5 -58.5t58.5 -143.5v-29q0 -85 -58.5 -144t-141.5 -59h-574v-123h758v-155h-911z" />
<glyph unicode="&#xb3;" horiz-adv-x="1103" d="M115 418v155h772v123h-772v156h772v123h-772v155h725q83 0 140.5 -56t57.5 -134v-31q0 -76 -59 -135q63 -63 63 -135v-31q0 -78 -59.5 -134t-142.5 -56h-725z" />
<glyph unicode="&#xb4;" horiz-adv-x="425" d="M-84 1253l363 295h231l-360 -295h-234z" />
<glyph unicode="&#xb5;" d="M115 -418v1548h196v-933h1098v933h197v-1130h-1295v-418h-196z" />
<glyph unicode="&#xb6;" horiz-adv-x="1368" d="M55 98q0 76 40 141.5t108 102.5l475 256v-225l-387 -176h766v933h196v-823q0 -127 -89.5 -217t-217.5 -90h-657l401 -184v-219l-487 260q-68 35 -108 100.5t-40 140.5z" />
<glyph unicode="&#xb7;" horiz-adv-x="425" d="M115 442v246h196v-246h-196z" />
<glyph unicode="&#xb8;" horiz-adv-x="425" d="M-84 -418l360 295h234l-360 -295h-234z" />
<glyph unicode="&#xb9;" horiz-adv-x="577" d="M35 952l147 144q49 49 129 49q67 0 109.5 -48t42.5 -118v-561h-154v588l-164 -164z" />
<glyph unicode="&#xba;" horiz-adv-x="1368" d="M86 602v221q0 127 90 217t217 90h582q127 0 217 -90t90 -217v-221q0 -128 -90 -217.5t-217 -89.5h-582q-127 0 -217 89.5t-90 217.5zM283 492h802v442h-802v-442z" />
<glyph unicode="&#xbb;" horiz-adv-x="1155" d="M29 197l368 368l-368 369h278l152 -152q88 -91 88 -217q0 -129 -88 -217l-152 -151h-278zM578 197l368 368l-368 369h278l152 -152q88 -91 88 -217q0 -129 -88 -217l-152 -151h-278z" />
<glyph unicode="&#xbc;" horiz-adv-x="1990" d="M35 952l147 144q49 49 129 49q67 0 109.5 -48t42.5 -118v-561h-154v588l-164 -164zM160 0l1130 1130h174l-1130 -1130h-174zM932 358q0 77 65 125l308 230h262l-480 -353h549v353h156v-353h117v-155h-117v-205h-156v205h-553q-62 0 -106.5 45t-44.5 108z" />
<glyph unicode="&#xbd;" horiz-adv-x="2150" d="M35 952l147 144q49 49 129 49q67 0 109.5 -48t42.5 -118v-561h-154v588l-164 -164zM160 0l1130 1130h174l-1130 -1130h-174zM1161 0v231q0 84 59.5 143.5t143.5 59.5h571v123h-774v156h727q83 0 142 -59t59 -144v-29q0 -85 -58.5 -143.5t-142.5 -58.5h-573v-123h758v-156 h-912z" />
<glyph unicode="&#xbe;" horiz-adv-x="2455" d="M115 418v155h772v123h-772v156h772v123h-772v155h725q83 0 140.5 -56t57.5 -134v-31q0 -76 -59 -135q63 -63 63 -135v-31q0 -78 -59.5 -134t-142.5 -56h-725zM625 0l1130 1130h174l-1130 -1130h-174zM1397 358q0 77 65 125l307 230h263l-480 -353h549v353h156v-353h117 v-155h-117v-205h-156v205h-553q-62 0 -106.5 45t-44.5 108z" />
<glyph unicode="&#xbf;" horiz-adv-x="1634" d="M86 307v49q0 128 90 218t217 90h889v-197h-999v-270h1294v-197h-1184q-127 0 -217 90t-90 217zM1085 885v245h197v-245h-197z" />
<glyph unicode="&#xc0;" horiz-adv-x="1898" d="M0 0l739 1034q37 52 92 83.5t117 31.5q63 0 117.5 -31.5t91.5 -83.5l741 -1034h-247l-189 266h-1028l-186 -266h-248zM575 463h746l-373 534zM649 1548h234l360 -295h-233z" />
<glyph unicode="&#xc1;" horiz-adv-x="1898" d="M0 0l739 1034q37 52 92 83.5t117 31.5q63 0 117.5 -31.5t91.5 -83.5l741 -1034h-247l-189 266h-1028l-186 -266h-248zM575 463h746l-373 534zM649 1253l363 295h231l-360 -295h-234z" />
<glyph unicode="&#xc2;" horiz-adv-x="1898" d="M0 0l739 1034q37 52 92 83.5t117 31.5q63 0 117.5 -31.5t91.5 -83.5l741 -1034h-247l-189 266h-1028l-186 -266h-248zM575 463h746l-373 534zM623 1253l151 222q27 39 69.5 62.5t92.5 23.5t92.5 -23.5t69.5 -62.5l151 -222h-178l-135 197l-135 -197h-178z" />
<glyph unicode="&#xc3;" horiz-adv-x="1898" d="M0 0l739 1034q37 52 92 83.5t117 31.5q63 0 117.5 -31.5t91.5 -83.5l741 -1034h-247l-189 266h-1028l-186 -266h-248zM508 1253l151 222q27 39 69.5 62.5t92.5 23.5t92.5 -23.5t69.5 -62.5l94 -136l135 197h179l-152 -221q-27 -39 -69.5 -62.5t-92.5 -23.5t-92.5 23.5 t-69.5 62.5l-94 135l-135 -197h-178zM575 463h746l-373 534z" />
<glyph unicode="&#xc4;" horiz-adv-x="1898" d="M0 0l739 1034q37 52 92 83.5t117 31.5q63 0 117.5 -31.5t91.5 -83.5l741 -1034h-247l-189 266h-1028l-186 -266h-248zM575 463h746l-373 534zM625 1253v246h196v-246h-196zM1051 1253v246h196v-246h-196z" />
<glyph unicode="&#xc5;" horiz-adv-x="1898" d="M0 0l739 1034q37 52 92 83.5t117 31.5q63 0 117.5 -31.5t91.5 -83.5l741 -1034h-247l-189 266h-1028l-186 -266h-248zM575 463h746l-373 534zM668 1505q0 116 80.5 196.5t195.5 80.5q116 0 196.5 -81t80.5 -196t-80.5 -195.5t-196.5 -80.5t-196 80.5t-80 195.5zM813 1374 h262v262h-262v-262z" />
<glyph unicode="&#xc6;" horiz-adv-x="3110" d="M16 0l1291 1081q62 49 145 49h1544v-196h-1294v-270h1294v-197h-1294v-270h1294v-197h-1184q-116 0 -202.5 77.5t-100.5 192.5h-860l-321 -270h-312zM885 467h620v522z" />
<glyph unicode="&#xc7;" horiz-adv-x="1662" d="M115 307v516q0 127 89.5 217t217.5 90h1184v-196h-1295v-737h1295v-197h-1184q-128 0 -217.5 90t-89.5 217zM559 -418l361 295h233l-360 -295h-234z" />
<glyph unicode="&#xc8;" d="M115 307v516q0 127 89.5 217t217.5 90h1184v-196h-1295v-270h1295v-197h-1295v-270h1295v-197h-1184q-128 0 -217.5 90t-89.5 217zM563 1548h234l360 -295h-233z" />
<glyph unicode="&#xc9;" d="M115 307v516q0 127 89.5 217t217.5 90h1184v-196h-1295v-270h1295v-197h-1295v-270h1295v-197h-1184q-128 0 -217.5 90t-89.5 217zM561 1253l363 295h231l-360 -295h-234z" />
<glyph unicode="&#xca;" d="M115 307v516q0 127 89.5 217t217.5 90h1184v-196h-1295v-270h1295v-197h-1295v-270h1295v-197h-1184q-128 0 -217.5 90t-89.5 217zM549 1253l151 222q27 39 69.5 62.5t92.5 23.5t92.5 -23.5t69.5 -62.5l152 -222h-179l-135 197l-135 -197h-178z" />
<glyph unicode="&#xcb;" d="M115 307v516q0 127 89.5 217t217.5 90h1184v-196h-1295v-270h1295v-197h-1295v-270h1295v-197h-1184q-128 0 -217.5 90t-89.5 217zM551 1253v246h197v-246h-197zM977 1253v246h197v-246h-197z" />
<glyph unicode="&#xcc;" horiz-adv-x="425" d="M-84 1548h234l360 -295h-234zM115 0v1130h196v-1130h-196z" />
<glyph unicode="&#xcd;" horiz-adv-x="425" d="M-84 1253l363 295h231l-360 -295h-234zM115 0v1130h196v-1130h-196z" />
<glyph unicode="&#xce;" horiz-adv-x="425" d="M-100 1253l151 222q27 39 69.5 62.5t92.5 23.5t92.5 -23.5t69.5 -62.5l151 -222h-178l-135 197l-135 -197h-178zM115 0v1130h196v-1130h-196z" />
<glyph unicode="&#xcf;" horiz-adv-x="425" d="M-98 1253v246h196v-246h-196zM115 0v1130h196v-1130h-196zM328 1253v246h196v-246h-196z" />
<glyph unicode="&#xd0;" d="M-33 494v147h148v489h1183q128 0 218 -90t90 -217v-516q0 -127 -90 -217t-218 -90h-1183v494h-148zM311 197h1098v737h-1098v-293h377v-147h-377v-297z" />
<glyph unicode="&#xd1;" horiz-adv-x="1732" d="M115 0v928q0 92 64.5 156.5t156.5 64.5t158 -66l927 -942v989h197v-927q0 -92 -64.5 -156.5t-156.5 -64.5q-93 0 -158 65l-928 942v-989h-196zM426 1253l152 222q27 39 69 62.5t92 23.5t92.5 -23.5t69.5 -62.5l94 -136l135 197h179l-152 -221q-27 -39 -69.5 -62.5 t-92.5 -23.5t-92 23.5t-69 62.5l-95 135l-135 -197h-178z" />
<glyph unicode="&#xd2;" d="M115 307v516q0 127 89.5 217t217.5 90h876q128 0 218 -90t90 -217v-516q0 -127 -90 -217t-218 -90h-876q-128 0 -217.5 90t-89.5 217zM311 197h1098v737h-1098v-737zM563 1548h234l360 -295h-233z" />
<glyph unicode="&#xd3;" d="M115 307v516q0 127 89.5 217t217.5 90h876q128 0 218 -90t90 -217v-516q0 -127 -90 -217t-218 -90h-876q-128 0 -217.5 90t-89.5 217zM311 197h1098v737h-1098v-737zM561 1253l363 295h231l-360 -295h-234z" />
<glyph unicode="&#xd4;" d="M115 307v516q0 127 89.5 217t217.5 90h876q128 0 218 -90t90 -217v-516q0 -127 -90 -217t-218 -90h-876q-128 0 -217.5 90t-89.5 217zM311 197h1098v737h-1098v-737zM549 1253l151 222q27 39 69.5 62.5t92.5 23.5t92.5 -23.5t69.5 -62.5l152 -222h-179l-135 197 l-135 -197h-178z" />
<glyph unicode="&#xd5;" d="M115 307v516q0 127 89.5 217t217.5 90h876q128 0 218 -90t90 -217v-516q0 -127 -90 -217t-218 -90h-876q-128 0 -217.5 90t-89.5 217zM311 197h1098v737h-1098v-737zM412 1253l151 222q27 39 69.5 62.5t92.5 23.5t92.5 -23.5t69.5 -62.5l94 -136l135 197h178l-151 -221 q-27 -39 -69.5 -62.5t-92.5 -23.5t-92.5 23.5t-69.5 62.5l-94 135l-135 -197h-178z" />
<glyph unicode="&#xd6;" d="M115 307v516q0 127 89.5 217t217.5 90h876q128 0 218 -90t90 -217v-516q0 -127 -90 -217t-218 -90h-876q-128 0 -217.5 90t-89.5 217zM311 197h1098v737h-1098v-737zM551 1253v246h197v-246h-197zM977 1253v246h197v-246h-197z" />
<glyph unicode="&#xd7;" horiz-adv-x="1196" d="M57 156l402 401l-402 401h279l262 -272l262 272h279l-402 -401l402 -401h-279l-262 272l-262 -272h-279z" />
<glyph unicode="&#xd8;" d="M-61 0l221 152q-45 70 -45 155v516q0 127 89.5 217t217.5 90h876q108 0 191 -67l98 67h195l-221 -151q45 -70 45 -156v-516q0 -127 -90 -217t-218 -90h-876q-108 0 -191 70l-100 -70h-192zM311 256l992 678h-992v-678zM418 197h991v677z" />
<glyph unicode="&#xd9;" d="M115 307v823h196v-933h1098v933h197v-823q0 -127 -90 -217t-218 -90h-876q-128 0 -217.5 90t-89.5 217zM563 1548h234l360 -295h-233z" />
<glyph unicode="&#xda;" d="M115 307v823h196v-933h1098v933h197v-823q0 -127 -90 -217t-218 -90h-876q-128 0 -217.5 90t-89.5 217zM561 1253l363 295h231l-360 -295h-234z" />
<glyph unicode="&#xdb;" d="M115 307v823h196v-933h1098v933h197v-823q0 -127 -90 -217t-218 -90h-876q-128 0 -217.5 90t-89.5 217zM549 1253l151 222q27 39 69.5 62.5t92.5 23.5t92.5 -23.5t69.5 -62.5l152 -222h-179l-135 197l-135 -197h-178z" />
<glyph unicode="&#xdc;" d="M115 307v823h196v-933h1098v933h197v-823q0 -127 -90 -217t-218 -90h-876q-128 0 -217.5 90t-89.5 217zM551 1253v246h197v-246h-197zM977 1253v246h197v-246h-197z" />
<glyph unicode="&#xdd;" horiz-adv-x="1769" d="M0 1130h289l596 -583l596 583h288l-708 -681q-38 -38 -78 -52v-397h-197v397q-38 13 -77 52zM592 1253l362 295h232l-361 -295h-233z" />
<glyph unicode="&#xde;" horiz-adv-x="1691" d="M115 0v1130h196v-172h987q128 0 218 -90t90 -217v-172q0 -127 -90 -217t-218 -90h-987v-172h-196zM311 369h1098v393h-1098v-393z" />
<glyph unicode="&#xdf;" horiz-adv-x="1691" d="M115 -418v1260q0 121 86 204.5t213 83.5h884q127 0 214 -84t87 -204v-49q0 -69 -29.5 -128.5t-82.5 -99.5q55 -39 87 -99t32 -128v-49q0 -120 -90 -204.5t-218 -84.5h-766v197h877v270h-877v197h877v270h-1098v-1352h-196z" />
<glyph unicode="&#xe0;" horiz-adv-x="1699" d="M41 307v49q0 128 90 218t217 90h1041v270h-1295v196h1184q128 0 217.5 -90t89.5 -217v-823h-1237q-128 0 -217.5 90t-89.5 217zM238 197h1151v270h-1151v-270zM547 1548h233l361 -295h-234z" />
<glyph unicode="&#xe1;" horiz-adv-x="1699" d="M41 307v49q0 128 90 218t217 90h1041v270h-1295v196h1184q128 0 217.5 -90t89.5 -217v-823h-1237q-128 0 -217.5 90t-89.5 217zM238 197h1151v270h-1151v-270zM543 1253l362 295h232l-361 -295h-233z" />
<glyph unicode="&#xe2;" horiz-adv-x="1699" d="M41 307v49q0 128 90 218t217 90h1041v270h-1295v196h1184q128 0 217.5 -90t89.5 -217v-823h-1237q-128 0 -217.5 90t-89.5 217zM238 197h1151v270h-1151v-270zM532 1253l152 222q27 39 69.5 62.5t92.5 23.5t92.5 -23.5t69.5 -62.5l151 -222h-178l-135 197l-135 -197h-179 z" />
<glyph unicode="&#xe3;" horiz-adv-x="1699" d="M41 307v49q0 128 90 218t217 90h1041v270h-1295v196h1184q128 0 217.5 -90t89.5 -217v-823h-1237q-128 0 -217.5 90t-89.5 217zM238 197h1151v270h-1151v-270zM395 1253l152 222q27 39 69.5 62.5t92.5 23.5t92 -23.5t69 -62.5l95 -136l135 197h178l-152 -221 q-27 -39 -69 -62.5t-92 -23.5t-92.5 23.5t-69.5 62.5l-94 135l-136 -197h-178z" />
<glyph unicode="&#xe4;" horiz-adv-x="1699" d="M41 307v49q0 128 90 218t217 90h1041v270h-1295v196h1184q128 0 217.5 -90t89.5 -217v-823h-1237q-128 0 -217.5 90t-89.5 217zM238 197h1151v270h-1151v-270zM535 1253v246h196v-246h-196zM961 1253v246h196v-246h-196z" />
<glyph unicode="&#xe5;" horiz-adv-x="1699" d="M41 307v49q0 128 90 218t217 90h1041v270h-1295v196h1184q128 0 217.5 -90t89.5 -217v-823h-1237q-128 0 -217.5 90t-89.5 217zM238 197h1151v270h-1151v-270zM563 1505q0 115 80.5 196t196.5 81q115 0 195.5 -80.5t80.5 -196.5q0 -115 -80 -195.5t-196 -80.5 t-196.5 80.5t-80.5 195.5zM709 1374h262v262h-262v-262z" />
<glyph unicode="&#xe6;" horiz-adv-x="2994" d="M41 307v49q0 128 90 218t217 90h1041v270h-1295v196h1151q77 0 140 -36t102 -99q39 63 102 99t140 36h843q128 0 217.5 -90t89.5 -217v-356h-1294v-270h1294v-197h-1150q-77 0 -140 36t-102 99q-39 -63 -102 -99t-140 -36h-897q-128 0 -217.5 90t-89.5 217zM238 197h1151 v270h-1151v-270zM1585 664h1098v270h-1098v-270z" />
<glyph unicode="&#xe7;" horiz-adv-x="1662" d="M115 307v516q0 127 89.5 217t217.5 90h1184v-196h-1295v-737h1295v-197h-1184q-128 0 -217.5 90t-89.5 217zM559 -418l361 295h233l-360 -295h-234z" />
<glyph unicode="&#xe8;" d="M115 307v516q0 127 89.5 217t217.5 90h876q128 0 218 -90t90 -217v-356h-1295v-270h1295v-197h-1184q-128 0 -217.5 90t-89.5 217zM311 664h1098v270h-1098v-270zM561 1548h234l360 -295h-233z" />
<glyph unicode="&#xe9;" d="M115 307v516q0 127 89.5 217t217.5 90h876q128 0 218 -90t90 -217v-356h-1295v-270h1295v-197h-1184q-128 0 -217.5 90t-89.5 217zM311 664h1098v270h-1098v-270zM563 1253l363 295h231l-360 -295h-234z" />
<glyph unicode="&#xea;" d="M115 307v516q0 127 89.5 217t217.5 90h876q128 0 218 -90t90 -217v-356h-1295v-270h1295v-197h-1184q-128 0 -217.5 90t-89.5 217zM311 664h1098v270h-1098v-270zM549 1253l151 222q27 39 69.5 62.5t92.5 23.5t92.5 -23.5t69.5 -62.5l152 -222h-179l-135 197l-135 -197 h-178z" />
<glyph unicode="&#xeb;" d="M115 307v516q0 127 89.5 217t217.5 90h876q128 0 218 -90t90 -217v-356h-1295v-270h1295v-197h-1184q-128 0 -217.5 90t-89.5 217zM311 664h1098v270h-1098v-270zM551 1253v246h197v-246h-197zM977 1253v246h197v-246h-197z" />
<glyph unicode="&#xec;" horiz-adv-x="425" d="M-84 1548h234l360 -295h-234zM115 0v1130h196v-1130h-196z" />
<glyph unicode="&#xed;" horiz-adv-x="425" d="M-84 1253l363 295h231l-360 -295h-234zM115 0v1130h196v-1130h-196z" />
<glyph unicode="&#xee;" horiz-adv-x="425" d="M-100 1253l151 222q27 39 69.5 62.5t92.5 23.5t92.5 -23.5t69.5 -62.5l151 -222h-178l-135 197l-135 -197h-178zM115 0v1130h196v-1130h-196z" />
<glyph unicode="&#xef;" horiz-adv-x="425" d="M-98 1253v246h196v-246h-196zM115 0v1130h196v-1130h-196zM328 1253v246h196v-246h-196z" />
<glyph unicode="&#xf0;" d="M115 307v516q0 127 89.5 217t217.5 90h745l-192 123h-610v99h456l-305 196h334l297 -196h459v-99h-312l158 -102q68 -44 111 -116.5t43 -153.5v-574q0 -127 -90 -217t-218 -90h-876q-128 0 -217.5 90t-89.5 217zM311 197h1098v737h-1098v-737z" />
<glyph unicode="&#xf1;" d="M115 0v1130h1183q128 0 218 -90t90 -217v-823h-197v934h-1098v-934h-196zM412 1253l151 222q27 39 69.5 62.5t92.5 23.5t92.5 -23.5t69.5 -62.5l94 -136l135 197h178l-151 -221q-27 -39 -69.5 -62.5t-92.5 -23.5t-92.5 23.5t-69.5 62.5l-94 135l-135 -197h-178z" />
<glyph unicode="&#xf2;" d="M115 307v516q0 127 89.5 217t217.5 90h876q128 0 218 -90t90 -217v-516q0 -127 -90 -217t-218 -90h-876q-128 0 -217.5 90t-89.5 217zM311 197h1098v737h-1098v-737zM559 1548h234l360 -295h-233z" />
<glyph unicode="&#xf3;" d="M115 307v516q0 127 89.5 217t217.5 90h876q128 0 218 -90t90 -217v-516q0 -127 -90 -217t-218 -90h-876q-128 0 -217.5 90t-89.5 217zM311 197h1098v737h-1098v-737zM563 1253l363 295h231l-360 -295h-234z" />
<glyph unicode="&#xf4;" d="M115 307v516q0 127 89.5 217t217.5 90h876q128 0 218 -90t90 -217v-516q0 -127 -90 -217t-218 -90h-876q-128 0 -217.5 90t-89.5 217zM311 197h1098v737h-1098v-737zM549 1253l151 222q27 39 69.5 62.5t92.5 23.5t92.5 -23.5t69.5 -62.5l152 -222h-179l-135 197 l-135 -197h-178z" />
<glyph unicode="&#xf5;" d="M115 307v516q0 127 89.5 217t217.5 90h876q128 0 218 -90t90 -217v-516q0 -127 -90 -217t-218 -90h-876q-128 0 -217.5 90t-89.5 217zM311 197h1098v737h-1098v-737zM412 1253l151 222q27 39 69.5 62.5t92.5 23.5t92.5 -23.5t69.5 -62.5l94 -136l135 197h178l-151 -221 q-27 -39 -69.5 -62.5t-92.5 -23.5t-92.5 23.5t-69.5 62.5l-94 135l-135 -197h-178z" />
<glyph unicode="&#xf6;" d="M115 307v516q0 127 89.5 217t217.5 90h876q128 0 218 -90t90 -217v-516q0 -127 -90 -217t-218 -90h-876q-128 0 -217.5 90t-89.5 217zM311 197h1098v737h-1098v-737zM551 1253v246h197v-246h-197zM977 1253v246h197v-246h-197z" />
<glyph unicode="&#xf7;" horiz-adv-x="1146" d="M57 467v197h1033v-197h-1033zM469 49v246h197v-246h-197zM469 836v245h197v-245h-197z" />
<glyph unicode="&#xf8;" d="M-61 0l221 152q-45 70 -45 155v516q0 127 89.5 217t217.5 90h876q108 0 191 -67l98 67h195l-221 -151q45 -70 45 -156v-516q0 -127 -90 -217t-218 -90h-876q-108 0 -191 70l-100 -70h-192zM311 256l992 678h-992v-678zM418 197h991v677z" />
<glyph unicode="&#xf9;" d="M115 307v823h196v-933h1098v933h197v-1130h-1184q-128 0 -217.5 90t-89.5 217zM563 1548h234l360 -295h-233z" />
<glyph unicode="&#xfa;" d="M115 307v823h196v-933h1098v933h197v-1130h-1184q-128 0 -217.5 90t-89.5 217zM561 1253l363 295h231l-360 -295h-234z" />
<glyph unicode="&#xfb;" d="M115 307v823h196v-933h1098v933h197v-1130h-1184q-128 0 -217.5 90t-89.5 217zM549 1253l151 222q27 39 69.5 62.5t92.5 23.5t92.5 -23.5t69.5 -62.5l152 -222h-179l-135 197l-135 -197h-178z" />
<glyph unicode="&#xfc;" d="M115 307v823h196v-933h1098v933h197v-1130h-1184q-128 0 -217.5 90t-89.5 217zM551 1253v246h197v-246h-197zM977 1253v246h197v-246h-197z" />
<glyph unicode="&#xfd;" d="M115 -221h1294v221h-987q-128 0 -217.5 90t-89.5 217v823h196v-933h1098v933h197v-1241q0 -127 -90 -217t-218 -90h-1183v197zM561 1253l363 295h231l-360 -295h-234z" />
<glyph unicode="&#xfe;" d="M115 -418v1966h196v-418h987q128 0 218 -90t90 -217v-516q0 -127 -90 -217t-218 -90h-987v-418h-196zM311 197h1098v737h-1098v-737z" />
<glyph unicode="&#xff;" d="M115 -221h1294v221h-987q-128 0 -217.5 90t-89.5 217v823h196v-933h1098v933h197v-1241q0 -127 -90 -217t-218 -90h-1183v197zM551 1253v246h197v-246h-197zM977 1253v246h197v-246h-197z" />
<glyph unicode="&#x152;" horiz-adv-x="3014" d="M115 307v516q0 127 89.5 217t217.5 90h844q76 0 139 -36t102 -99q39 63 102 99t140 36h1151v-196h-1294v-270h1294v-197h-1294v-270h1294v-197h-1151q-77 0 -140 36t-102 99q-39 -63 -102 -99t-139 -36h-844q-128 0 -217.5 90t-89.5 217zM311 197h1098v737h-1098v-737z " />
<glyph unicode="&#x153;" horiz-adv-x="3014" d="M115 307v516q0 127 89.5 217t217.5 90h844q76 0 139 -36t102 -99q39 63 102 99t140 36h844q127 0 217 -90t90 -217v-356h-1294v-270h1294v-197h-1151q-77 0 -140 36t-102 99q-39 -63 -102 -99t-139 -36h-844q-128 0 -217.5 90t-89.5 217zM311 197h1098v737h-1098v-737z M1606 664h1097v270h-1097v-270z" />
<glyph unicode="&#x178;" horiz-adv-x="1769" d="M0 1130h289l596 -583l596 583h288l-708 -681q-38 -38 -78 -52v-397h-197v397q-38 13 -77 52zM575 1253v246h197v-246h-197zM1001 1253v246h197v-246h-197z" />
<glyph unicode="&#x2c6;" horiz-adv-x="425" d="M-100 1253l151 222q27 39 69.5 62.5t92.5 23.5t92.5 -23.5t69.5 -62.5l151 -222h-178l-135 197l-135 -197h-178z" />
<glyph unicode="&#x2dc;" horiz-adv-x="425" d="M-227 1253l151 222q27 39 69.5 62.5t92.5 23.5t92.5 -23.5t69.5 -62.5l94 -136l135 197h178l-151 -221q-27 -39 -69.5 -62.5t-92.5 -23.5t-92.5 23.5t-69.5 62.5l-94 135l-135 -197h-178z" />
<glyph unicode="&#x2000;" horiz-adv-x="891" />
<glyph unicode="&#x2001;" horiz-adv-x="1782" />
<glyph unicode="&#x2002;" horiz-adv-x="891" />
<glyph unicode="&#x2003;" horiz-adv-x="1782" />
<glyph unicode="&#x2004;" horiz-adv-x="594" />
<glyph unicode="&#x2005;" horiz-adv-x="445" />
<glyph unicode="&#x2006;" horiz-adv-x="297" />
<glyph unicode="&#x2007;" horiz-adv-x="297" />
<glyph unicode="&#x2008;" horiz-adv-x="222" />
<glyph unicode="&#x2009;" horiz-adv-x="356" />
<glyph unicode="&#x200a;" horiz-adv-x="99" />
<glyph unicode="&#x2010;" horiz-adv-x="983" d="M57 467v197h869v-197h-869z" />
<glyph unicode="&#x2011;" horiz-adv-x="983" d="M57 467v197h869v-197h-869z" />
<glyph unicode="&#x2012;" horiz-adv-x="983" d="M57 467v197h869v-197h-869z" />
<glyph unicode="&#x2013;" horiz-adv-x="1146" d="M57 467v197h1033v-197h-1033z" />
<glyph unicode="&#x2014;" horiz-adv-x="1538" d="M57 467v197h1424v-197h-1424z" />
<glyph unicode="&#x2018;" horiz-adv-x="425" d="M121 522v324q0 121 78.5 210t197.5 99v-205h-129v-182h49v-246h-196z" />
<glyph unicode="&#x2019;" horiz-adv-x="434" d="M35 498v204h129v183h-49v245h196v-323q0 -121 -78.5 -210t-197.5 -99z" />
<glyph unicode="&#x201a;" horiz-adv-x="425" d="M35 -133h129v182h-49v246h196v-324q0 -121 -78.5 -210t-197.5 -99v205z" />
<glyph unicode="&#x201c;" horiz-adv-x="819" d="M121 522v324q0 121 78.5 210t197.5 99v-205h-129v-182h49v-246h-196zM514 522v324q0 121 79 210t198 99v-205h-129v-182h49v-246h-197z" />
<glyph unicode="&#x201d;" horiz-adv-x="819" d="M35 498v204h129v183h-49v245h196v-323q0 -121 -78.5 -210t-197.5 -99zM428 498v204h129v183h-49v245h197v-323q0 -121 -79 -210t-198 -99z" />
<glyph unicode="&#x201e;" horiz-adv-x="819" d="M35 -133h129v182h-49v246h196v-324q0 -121 -78.5 -210t-197.5 -99v205zM428 -133h129v182h-49v246h197v-324q0 -121 -79 -210t-198 -99v205z" />
<glyph unicode="&#x2022;" horiz-adv-x="628" d="M57 565q0 106 75.5 181t182.5 75q106 0 181 -75t75 -181t-75 -182t-181 -76q-107 0 -182.5 76t-75.5 182z" />
<glyph unicode="&#x2026;" horiz-adv-x="1277" d="M115 0v246h196v-246h-196zM541 0v246h196v-246h-196zM967 0v246h196v-246h-196z" />
<glyph unicode="&#x202f;" horiz-adv-x="356" />
<glyph unicode="&#x2039;" horiz-adv-x="606" d="M57 565q0 127 90 217l152 152h279l-369 -369l369 -368h-279l-152 151q-90 87 -90 217z" />
<glyph unicode="&#x203a;" horiz-adv-x="604" d="M29 197l368 368l-368 369h278l152 -152q88 -91 88 -217q0 -129 -88 -217l-152 -151h-278z" />
<glyph unicode="&#x205f;" horiz-adv-x="445" />
<glyph unicode="&#x20ac;" horiz-adv-x="1726" d="M33 418v98h145v98h-145v99h145v73q0 131 92 237.5t215 106.5h1184v-196h-1294v-221h655v-99h-655v-98h655v-98h-655v-221h1294v-197h-1184q-126 0 -216.5 90t-90.5 217v111h-145z" />
<glyph unicode="&#x2122;" horiz-adv-x="1449" d="M57 1032v98h557v-98h-229v-278h-98v278h-230zM680 754v286q0 40 29 69.5t69 29.5q59 0 88 -54l142 -241l143 241q29 54 86 54q41 0 69.5 -29.5t28.5 -69.5v-286h-98v286l-143 -245q-29 -50 -86 -50q-58 0 -84 50l-146 245v-286h-98z" />
<glyph unicode="&#xe000;" horiz-adv-x="1126" d="M0 0v1126h1126v-1126h-1126z" />
</font>
</defs>
</svg>
